# This file uses centimeters as units for non-parametric coordinates.

mtllib Police_Tape.mtl
g default
v -3.998811 1.328574 0.002000
v -3.997000 1.327384 0.002000
v -3.997000 1.328574 0.003811
v -3.997000 1.330384 0.005000
v -3.998811 1.330384 0.003811
v -4.000000 1.330384 0.002000
v 3.998811 1.328574 0.002000
v 4.000000 1.330384 0.002000
v 3.998811 1.330384 0.003811
v 3.997000 1.330384 0.005000
v 3.997000 1.328574 0.003811
v 3.997000 1.327384 0.002000
v -3.998811 2.326195 0.002000
v -4.000000 2.324385 0.002000
v -3.998811 2.324385 0.003811
v -3.997000 2.324385 0.005000
v -3.997000 2.326195 0.003811
v -3.997000 2.327384 0.002000
v 3.998811 2.326195 0.002000
v 3.997000 2.327384 0.002000
v 3.997000 2.326195 0.003811
v 3.997000 2.324385 0.005000
v 3.998811 2.324385 0.003811
v 4.000000 2.324385 0.002000
v -3.998811 2.324385 -0.003811
v -4.000000 2.324385 -0.002000
v -3.998811 2.326195 -0.002000
v -3.997000 2.327384 -0.002000
v -3.997000 2.326195 -0.003811
v -3.997000 2.324385 -0.005000
v 3.998811 2.324385 -0.003811
v 3.997000 2.324385 -0.005000
v 3.997000 2.326195 -0.003811
v 3.997000 2.327384 -0.002000
v 3.998811 2.326195 -0.002000
v 4.000000 2.324385 -0.002000
v -3.998811 1.328574 -0.002000
v -4.000000 1.330384 -0.002000
v -3.998811 1.330384 -0.003811
v -3.997000 1.330384 -0.005000
v -3.997000 1.328574 -0.003811
v -3.997000 1.327384 -0.002000
v 3.998811 1.328574 -0.002000
v 3.997000 1.327384 -0.002000
v 3.997000 1.328574 -0.003811
v 3.997000 1.330384 -0.005000
v 3.998811 1.330384 -0.003811
v 4.000000 1.330384 -0.002000
v -3.998346 1.329038 0.003346
v 3.998346 1.329038 0.003346
v -3.998346 2.325730 0.003346
v 3.998346 2.325730 0.003346
v -3.998346 2.325730 -0.003346
v 3.998346 2.325730 -0.003346
v -3.998346 1.329038 -0.003346
v 3.998346 1.329038 -0.003346
vt 0.046557 0.110254
vt 0.046927 0.110256
vt 0.046420 0.234627
vt 0.046050 0.234625
vt 0.047156 0.053971
vt 0.047242 0.068426
vt 0.098622 0.110466
vt 0.098115 0.234838
vt 0.046191 0.290911
vt 0.046394 0.276458
vt 0.099002 0.017211
vt 0.098851 0.054182
vt 0.407638 0.111726
vt 0.407131 0.236097
vt 0.097885 0.291122
vt 0.097735 0.328093
vt 0.408018 0.018471
vt 0.407868 0.055441
vt 0.476965 0.112008
vt 0.476458 0.236380
vt 0.406902 0.292382
vt 0.406751 0.329352
vt 0.477194 0.055724
vt 0.476991 0.070177
vt 0.477334 0.112010
vt 0.476827 0.236381
vt 0.476143 0.278210
vt 0.476228 0.292664
vt 0.620172 0.243058
vt 0.572004 0.243295
vt 0.571392 0.118924
vt 0.619560 0.118687
vt 0.620449 0.299342
vt 0.572354 0.285125
vt 0.571634 0.243297
vt 0.571022 0.118926
vt 0.619283 0.062403
vt 0.571331 0.077093
vt 0.928575 0.117166
vt 0.929187 0.241537
vt 0.929464 0.297821
vt 0.620631 0.336313
vt 0.572281 0.299579
vt 0.571115 0.062640
vt 0.928298 0.060882
vt 0.619101 0.025432
vt 0.982645 0.241274
vt 0.982033 0.116903
vt 0.982706 0.283105
vt 0.929646 0.334792
vt 0.981683 0.075073
vt 0.928116 0.023911
vt 0.983015 0.241272
vt 0.982403 0.116901
vt 0.982922 0.297558
vt 0.981756 0.060619
vt 0.563186 0.663764
vt 0.563186 0.626793
vt 0.873837 0.626793
vt 0.873837 0.663764
vt 0.563186 0.570508
vt 0.873837 0.570508
vt 0.563186 0.446136
vt 0.873837 0.446136
vt 0.563186 0.389851
vt 0.873837 0.389851
vt 0.563186 0.352880
vt 0.873837 0.352880
vt 0.201407 0.444983
vt 0.201407 0.388698
vt 0.512058 0.388698
vt 0.512058 0.444983
vt 0.201407 0.351727
vt 0.512058 0.351727
vt 0.512058 0.569355
vt 0.201407 0.569355
vt 0.201407 0.625640
vt 0.512058 0.625640
vt 0.201407 0.662611
vt 0.512058 0.662611
vt 0.039249 0.987414
vt 0.039249 0.676763
vt 0.348268 0.676763
vt 0.348268 0.987414
vt 0.385123 0.987414
vt 0.385123 0.676763
vt 0.694142 0.676763
vt 0.694142 0.987414
vn -0.000361 -0.835943 0.548816
vn -0.700837 -0.701051 0.131738
vn -0.700837 -0.701051 -0.131737
vn -0.000361 -0.835943 -0.548816
vn -0.836840 -0.002893 0.547439
vn -0.836840 -0.002893 -0.547439
vn -0.062601 -0.503451 0.861753
vn -0.000088 -0.707082 0.707131
vn 0.000088 -0.707082 0.707131
vn 0.062601 -0.503451 0.861753
vn 0.000361 -0.835943 0.548816
vn -0.706879 -0.000709 0.707335
vn -0.706879 0.000709 0.707335
vn -0.836840 0.002893 0.547439
vn -0.062599 0.503430 0.861766
vn 0.836840 -0.002893 0.547439
vn 0.700837 -0.701051 0.131737
vn 0.700837 -0.701051 -0.131738
vn 0.836840 -0.002893 -0.547439
vn 0.000361 -0.835943 -0.548816
vn 0.706879 -0.000709 0.707335
vn 0.706879 0.000709 0.707335
vn 0.062599 0.503430 0.861766
vn 0.836840 0.002893 0.547439
vn -0.700852 0.701036 0.131736
vn -0.700852 0.701036 -0.131736
vn -0.836840 0.002893 -0.547439
vn -0.000361 0.835943 0.548816
vn -0.000361 0.835943 -0.548816
vn -0.000088 0.707068 0.707146
vn 0.000088 0.707068 0.707146
vn 0.000361 0.835943 0.548816
vn 0.700852 0.701036 0.131736
vn 0.700852 0.701036 -0.131736
vn 0.000361 0.835943 -0.548816
vn 0.836840 0.002893 -0.547439
vn -0.706879 0.000709 -0.707335
vn -0.706879 -0.000709 -0.707335
vn -0.062599 0.503430 -0.861766
vn -0.062601 -0.503451 -0.861753
vn -0.000088 0.707068 -0.707146
vn 0.000088 0.707068 -0.707146
vn 0.062599 0.503430 -0.861766
vn 0.706879 0.000709 -0.707335
vn 0.706879 -0.000709 -0.707335
vn 0.062601 -0.503451 -0.861753
vn -0.000088 -0.707082 -0.707131
vn 0.000088 -0.707082 -0.707131
vn 0.000000 0.000000 1.000000
vn 0.000000 0.000000 1.000000
vn 0.000000 0.000000 1.000000
vn 0.000000 0.000000 1.000000
vn 0.000000 1.000000 0.000000
vn 0.000000 1.000000 0.000000
vn 0.000000 1.000000 0.000000
vn 0.000000 1.000000 0.000000
vn 0.000000 0.000000 -1.000000
vn 0.000000 0.000000 -1.000000
vn 0.000000 0.000000 -1.000000
vn 0.000000 0.000000 -1.000000
vn 0.000000 -1.000000 0.000000
vn 0.000000 -1.000000 0.000000
vn 0.000000 -1.000000 0.000000
vn 0.000000 -1.000000 0.000000
vn 1.000000 0.000000 0.000000
vn 1.000000 0.000000 0.000000
vn 1.000000 0.000000 0.000000
vn 1.000000 0.000000 0.000000
vn -1.000000 0.000000 0.000000
vn -1.000000 0.000000 0.000000
vn -1.000000 0.000000 0.000000
vn -1.000000 0.000000 0.000000
vn -0.621546 -0.622175 0.476003
vn 0.621546 -0.622176 0.476001
vn -0.621563 0.622163 0.475997
vn 0.621562 0.622162 0.475999
vn -0.621562 0.622162 -0.475999
vn 0.621563 0.622163 -0.475997
vn -0.621546 -0.622176 -0.476001
vn 0.621546 -0.622175 -0.476003
s 1
g pCube1
usemtl initialShadingGroup
f 2/1/1 1/2/2 37/3/3 42/4/4
f 1/2/2 6/7/5 38/8/6 37/3/3
f 4/57/7 3/58/8 11/59/9 10/60/10
f 3/58/8 2/61/1 12/62/11 11/59/9
f 6/7/5 5/12/12 15/18/13 14/13/14
f 5/12/12 4/11/7 16/17/15 15/18/13
f 8/29/16 7/30/17 43/31/18 48/32/19
f 7/30/17 12/35/11 44/36/20 43/31/18
f 10/42/10 9/33/21 23/41/22 22/50/23
f 9/33/21 8/29/16 24/40/24 23/41/22
f 14/13/14 13/19/25 27/20/26 26/14/27
f 13/19/25 18/25/28 28/26/29 27/20/26
f 18/69/28 17/70/30 21/71/31 20/72/32
f 17/70/30 16/73/15 22/74/23 21/71/31
f 20/53/32 19/47/33 35/48/34 34/54/35
f 19/47/33 24/40/24 36/39/36 35/48/34
f 26/14/27 25/21/37 39/15/38 38/8/6
f 25/21/37 30/22/39 40/16/40 39/15/38
f 30/79/39 29/77/41 33/78/42 32/80/43
f 29/77/41 28/76/29 34/75/35 33/78/42
f 32/52/43 31/45/44 47/37/45 46/46/46
f 31/45/44 36/39/36 48/32/19 47/37/45
f 42/63/4 41/65/47 45/66/48 44/64/20
f 41/65/47 40/67/40 46/68/46 45/66/48
s off
f 4/81/49 10/82/50 22/83/51 16/84/52
f 18/69/53 20/72/54 34/75/55 28/76/56
f 30/85/57 32/86/58 46/87/59 40/88/60
f 42/63/61 44/64/62 12/62/63 2/61/64
f 8/29/65 48/32/66 36/39/67 24/40/68
f 38/8/69 6/7/70 14/13/71 26/14/72
s 1
f 5/12/12 6/7/5 1/2/2 49/6/73
f 1/2/2 2/1/1 3/5/8 49/6/73
f 3/5/8 4/11/7 5/12/12 49/6/73
f 11/43/9 12/35/11 7/30/17 50/34/74
f 7/30/17 8/29/16 9/33/21 50/34/74
f 9/33/21 10/42/10 11/43/9 50/34/74
f 17/23/30 18/25/28 13/19/25 51/24/75
f 13/19/25 14/13/14 15/18/13 51/24/75
f 15/18/13 16/17/15 17/23/30 51/24/75
f 23/41/22 24/40/24 19/47/33 52/49/76
f 19/47/33 20/53/32 21/55/31 52/49/76
f 21/55/31 22/50/23 23/41/22 52/49/76
f 29/28/41 30/22/39 25/21/37 53/27/77
f 25/21/37 26/14/27 27/20/26 53/27/77
f 27/20/26 28/26/29 29/28/41 53/27/77
f 35/48/34 36/39/36 31/45/44 54/51/78
f 31/45/44 32/52/43 33/56/42 54/51/78
f 33/56/42 34/54/35 35/48/34 54/51/78
f 41/9/47 42/4/4 37/3/3 55/10/79
f 37/3/3 38/8/6 39/15/38 55/10/79
f 39/15/38 40/16/40 41/9/47 55/10/79
f 47/37/45 48/32/19 43/31/18 56/38/80
f 43/31/18 44/36/20 45/44/48 56/38/80
f 45/44/48 46/46/46 47/37/45 56/38/80
